<svg width="104" height="104" viewBox="0 0 104 104" fill="none" xmlns="http://www.w3.org/2000/svg">
<path d="M1.248 63.45C14.0547 58.7913 32.0482 55.8977 51.9879 55.8977C71.9191 55.8977 89.9059 58.7888 102.712 63.444C97.4873 86.6359 76.7311 104 51.9791 104C27.2292 104 6.4744 86.639 1.248 63.45Z" fill="#F7CB3D"/>
<path d="M102.732 63.4441C103.562 59.761 104 55.9309 104 52C104 23.3171 80.6829 0 52 0C23.3171 0 0 23.3171 0 52C0 55.933 0.438397 59.7651 1.26891 63.45C14.0756 58.7913 32.0691 55.8977 52.0088 55.8977C71.94 55.8977 89.9268 58.7888 102.732 63.4441Z" fill="#FCE47F"/>
<mask id="mask0_2965_530" style="mask-type:luminance" maskUnits="userSpaceOnUse" x="0" y="0" width="104" height="104">
<circle cx="52" cy="52" r="52" fill="white"/>
</mask>
<g mask="url(#mask0_2965_530)">
<path d="M95.454 35.2599V35.6572L52.0346 47.1828L10.3043 35.9553L9.50946 35.6572V35.2599L51.8359 19.76L95.454 35.2599Z" fill="#3C3E40"/>
<path d="M51.9352 49.5674L72.9991 43.9041C73.0597 44.0152 73.1739 44.1973 73.33 44.4464C74.7081 46.646 79.358 54.0676 79.358 63.9743C79.9542 64.6698 66.6402 72.221 52.134 72.221C37.6277 72.221 24.8106 64.4711 24.6118 63.5769C24.6118 56.4175 29.3552 46.9348 30.8156 44.0153C30.8348 43.9771 30.8534 43.9399 30.8714 43.9041L51.9352 49.5674Z" fill="#3C3E40"/>
<path fill-rule="evenodd" clip-rule="evenodd" d="M9.50946 35.2599L51.8359 19.76C51.8359 19.76 51.9353 33.7694 51.9353 47.0834L9.50946 35.6572V35.2599ZM51.9352 72.7177C37.9258 72.7177 24.9099 64.2723 24.6118 63.9743C24.3137 56.8205 29.6572 45.8844 30.8495 43.8973L52.0346 49.6668C52.0346 61.0929 51.9352 74.705 51.9352 72.7177Z" fill="#898989"/>
<path fill-rule="evenodd" clip-rule="evenodd" d="M90.2874 33.372L87.8034 32.5771V47.8843C86.5395 48.3718 85.6176 49.6723 85.6176 51.1571C85.6176 52.3403 86.203 53.4064 87.0803 54.0373C85.0205 68.9298 84.922 89.9203 84.922 92.9868C87.8034 90.6022 90.5854 87.9195 92.97 85.1375C92.7716 76.907 92.2764 63.9261 90.8916 53.899C91.6686 53.257 92.1752 52.2577 92.1752 51.1571C92.1752 49.7122 91.3022 48.442 90.0907 47.9255L90.2874 33.372Z" fill="#F4826E"/>
<path d="M30.3883 71.7311C31.1832 69.2472 32.3755 67.26 33.6671 66.4652L-0.313259 56.43C0.282888 61.1992 1.07775 65.4716 2.8662 69.744L29.9909 77.8913C29.4941 76.5003 29.5935 74.1157 30.3883 71.7311Z" fill="white"/>
<path d="M54.2205 85.5349L39.3168 80.7658C38.7207 79.2754 38.9194 77.0895 39.7143 74.7049C40.509 72.221 41.8007 70.3332 42.9931 69.439L57.4192 73.9896C57.4462 73.9952 57.4728 74.0019 57.4993 74.0095C57.546 74.0228 57.5915 74.039 57.6358 74.0578L57.7974 74.1088C57.7898 74.1152 57.7821 74.1218 57.7745 74.1282C58.9256 74.8106 59.119 77.5102 58.1948 80.4677C57.2676 83.4349 55.5616 85.5366 54.2073 85.4812C54.2117 85.4992 54.216 85.5171 54.2205 85.5349Z" fill="white"/>
<path d="M56.605 75.1023C57.5985 75.4004 57.7973 77.5863 57.0024 79.9709C56.307 82.3555 54.8165 84.0446 53.9223 83.7465C52.9287 83.4484 52.7301 81.2626 53.5248 78.878C54.3197 76.4933 55.7107 74.8043 56.605 75.1023Z" fill="#BCBEC0"/>
<path d="M30.3883 71.7311C31.1832 69.2472 32.3755 67.26 33.6671 66.4652L33.4795 66.4097L33.5539 66.3589L42.993 69.439C41.8007 70.3332 40.509 72.2211 39.7143 74.7049C38.9438 77.0161 38.7334 79.1405 39.264 80.626L39.2174 80.7658L32.9578 92.3906L31.6662 86.0317L27.5926 89.5093L26.3009 86.2305L22.1279 85.2369L29.9717 77.8856L29.9909 77.8913C29.9888 77.8854 29.9866 77.8795 29.9846 77.8735L29.9894 77.8689L29.9353 77.7232C29.5029 76.3134 29.6246 74.0222 30.3883 71.7311Z" fill="#F4826E"/>
<path d="M39.3168 80.6663L29.9772 77.8843L32.8585 92.2913L36.4354 89.0124L41.602 91.1983L39.3168 80.6663Z" fill="#EF674A"/>
</g>
</svg>
