<svg width="104" height="104" viewBox="0 0 104 104" fill="none" xmlns="http://www.w3.org/2000/svg">
<path d="M1.248 63.45C14.0547 58.7913 32.0482 55.8977 51.9879 55.8977C71.9191 55.8977 89.9059 58.7888 102.712 63.444C97.4873 86.6359 76.7311 104 51.9791 104C27.2292 104 6.4744 86.639 1.248 63.45Z" fill="#F7CB3D"/>
<path d="M102.732 63.4441C103.562 59.761 104 55.9309 104 52C104 23.3171 80.6829 0 52 0C23.3171 0 0 23.3171 0 52C0 55.933 0.438397 59.7651 1.26891 63.45C14.0756 58.7913 32.0691 55.8977 52.0088 55.8977C71.94 55.8977 89.9268 58.7888 102.732 63.4441Z" fill="#FCE47F"/>
<path d="M32.24 84.656C32.24 84.656 26.936 83.889 26.936 78.4241C26.936 74.0139 32.24 66.248 32.24 66.248" fill="#979BCD"/>
<path d="M32.24 84.656C32.24 84.656 37.544 83.889 37.544 78.4241C37.544 74.0139 32.24 66.248 32.24 66.248" fill="#6B458D"/>
<path d="M41.6 63.544C41.6 63.544 37.856 62.9704 37.856 59.147C37.856 56.0881 41.6 50.544 41.6 50.544" fill="#979BCD"/>
<path d="M41.6 63.544C41.6 63.544 45.344 62.9704 45.344 59.147C45.344 56.0881 41.6 50.544 41.6 50.544" fill="#6B458D"/>
<mask id="mask0_2965_697" style="mask-type:luminance" maskUnits="userSpaceOnUse" x="0" y="0" width="104" height="104">
<circle cx="52" cy="52" r="52" fill="white"/>
</mask>
<g mask="url(#mask0_2965_697)">
<path d="M96.4685 67.6L81.8315 49.6889L66.1352 47.1852L61.7055 51.4222L73.261 63.074L72.7796 70.3926L70.8536 73.2815C75.2833 75.5926 74.9944 79.2518 77.0167 80.3111C82.3129 83.0074 86.7425 79.5408 86.7425 79.5408L92.2315 84.9334C95.6981 80.7926 98.587 76.1703 100.609 71.1629L96.4685 67.6Z" fill="white"/>
</g>
<path d="M58.1426 54.5037L58.6241 72.9926C58.6241 72.9926 61.2241 73.9555 63.7278 67.6L66.4241 57.2963L58.1426 54.5037Z" fill="#898989"/>
<path d="M62.3796 55.7556L62.9574 76.2666C62.9574 76.2666 65.5574 77.2297 68.0611 70.874L70.7574 60.5703L62.3796 55.7556Z" fill="#898989"/>
<path d="M66.713 58.0666L67.2908 78.5778C67.2908 78.5778 69.8908 79.5407 72.3945 73.1852L75.0908 62.8815L66.713 58.0666Z" fill="#898989"/>
<path d="M70.3722 18.9703C71.6241 16.7555 71.5278 14.926 69.987 13.5778L63.4389 8.08889L62.5722 7.31852L61.2241 6.16296C59.587 4.81481 57.1796 5.00741 55.8315 6.54815L53.4241 9.34074L55.9278 11.4592L58.3352 8.66666C58.5278 8.47407 58.9129 8.37778 59.1055 8.66666L62.4759 11.4592L67.8685 16.0815C68.061 16.274 68.1573 16.6592 67.9647 16.8518L53.3278 43.9111C52.461 45.5481 52.1722 47.9555 53.7129 49.3037L57.4685 52.5778L59.587 50.074L55.8315 46.8C55.6389 46.6074 55.5426 46.2222 55.7352 46.0297L70.3722 18.9703Z" fill="#4B4B4D"/>
<path d="M88.0908 71.2592C89.2463 72.2222 89.3427 73.9555 88.3796 75.0148L86.55 77.1334C85.587 78.2889 83.8537 78.3852 82.7945 77.4222L57.6611 56.0444C56.5056 55.0815 56.4093 53.4444 57.3722 52.2889L59.2019 50.1703C60.1648 49.0148 61.8982 48.9185 62.9574 49.8815L88.0908 71.2592Z" fill="#3C3E40"/>
<path d="M60.0685 17.3078C60.1648 17.0189 60.0685 16.73 59.9722 16.3447C59.5871 14.6115 57.6611 12.0115 54.9648 9.70033C52.2685 7.38922 49.5722 5.84848 47.7427 5.65588C47.7427 5.65588 47.7427 5.65588 47.6464 5.65588C47.0685 5.55959 46.6834 5.65588 46.3945 5.75219C46.1056 5.84848 45.7204 6.23367 45.5279 6.42625L7.1056 50.7226C7.00931 50.8189 6.91302 51.0115 6.81671 51.1078C6.81671 51.1078 6.72042 51.1078 6.72042 51.204C5.66116 52.4559 7.77968 56.1152 11.5353 59.3892C15.0982 62.567 18.8537 64.204 20.1056 63.241C20.3945 63.1447 20.6834 62.8559 20.9722 62.567L59.5871 18.2707C59.876 17.9818 59.9722 17.6929 60.0685 17.3078Z" fill="#979BCD"/>
<path d="M60.0685 17.3334C60.0685 17.2371 60.0685 17.2371 60.0685 17.3334C60.1648 16.9482 60.0685 16.6593 59.9722 16.3703C59.587 14.6371 57.6611 12.0371 54.9648 9.72594C52.2685 7.41483 49.5722 5.87409 47.7426 5.68149C47.7426 5.68149 47.7426 5.68149 47.6464 5.68149C47.0685 5.5852 46.587 5.5852 46.2982 5.87409L46.1056 5.97038V33.7037L59.4907 18.2963C59.8759 17.9111 59.9722 17.6222 60.0685 17.3334Z" fill="#6B458D"/>
<path d="M73.2611 67.5037C73.2611 67.5037 66.4241 61.9185 64.787 60.7629C59.2019 56.6222 55.2537 60.7629 55.2537 60.7629C55.2537 60.7629 62.187 66.3482 69.4093 74.7259C69.4093 74.7259 77.6907 86.1852 90.2093 82.8148L98.1056 72.4148L76.0537 53.9259L77.2093 67.5037H73.2611Z" fill="white"/>
</svg>
