<svg width="24" height="24" viewBox="0 0 24 24" fill="none" xmlns="http://www.w3.org/2000/svg">
<path fill-rule="evenodd" clip-rule="evenodd" d="M4.4883 2.21668L4.40377 2.14399C3.68088 1.61045 2.81897 2.68508 3.46232 3.32638L8.26232 8.11104L8.39682 8.23597C9.04162 8.79391 9.92005 8.99953 10.7468 8.77957L15.4462 7.52499L15.5866 7.49178C15.9611 7.42597 16.3321 7.54056 16.5898 7.79757L19.7759 10.9754L17.5556 10.9757L17.455 10.9827C17.0935 11.0337 16.8148 11.3555 16.8148 11.7449C16.8148 12.1696 17.1465 12.514 17.5556 12.514H21.2593L21.3598 12.507C21.7213 12.456 22 12.1342 22 11.7449V8.05298L21.9932 7.94861C21.9442 7.57319 21.6343 7.28384 21.2593 7.28384L21.1587 7.29086C20.7972 7.34179 20.5185 7.66359 20.5185 8.05298V9.58305L17.616 6.68811L17.4774 6.55954C16.8123 5.98626 15.9013 5.78831 15.0566 6.04101L10.3785 7.28958L10.2474 7.31635C9.89622 7.36676 9.5386 7.2508 9.28824 7.00129L4.4883 2.21668ZM22 21.2309C22 20.8061 21.6684 20.4618 21.2593 20.4618H20.7654V16.9237C20.7654 16.1519 20.1508 15.5393 19.4074 15.5393H16.9383C16.1949 15.5393 15.5803 16.1519 15.5803 16.9237V20.4618H14.5926V10.7706C14.5926 9.99878 13.978 9.38612 13.2346 9.38612H10.7654C10.022 9.38612 9.40741 9.99878 9.40741 10.7706V20.4618H8.41974V13.2318C8.41974 12.46 7.80512 11.8474 7.06172 11.8474H4.59258C3.84918 11.8474 3.23456 12.46 3.23456 13.2318V20.4618H2.74074L2.64023 20.4688C2.27867 20.5197 2 20.8415 2 21.2309C2 21.6557 2.33164 22 2.74074 22H16.3155L16.321 22.0001H20.0247L20.0302 22H21.2593L21.3598 21.993C21.7213 21.9421 22 21.6203 22 21.2309ZM6.93829 13.3857V20.4618H4.71606V13.3857H6.93829ZM19.284 20.4617V17.0765H17.0618V20.4617H19.284ZM13.1111 10.9234V20.4617H10.8889V10.9234H13.1111Z" fill="#006DA3"/>
</svg>
