<svg width="24" height="24" viewBox="0 0 24 24" fill="none" xmlns="http://www.w3.org/2000/svg">
<path fill-rule="evenodd" clip-rule="evenodd" d="M20.9132 3.08842C20.2059 2.38445 19.2499 1.9935 18.2554 2.00017C17.2607 2.00701 16.3101 2.4109 15.6147 3.12211L13.573 5.16378L13.5603 5.17613L13.5484 5.18839L10.2405 8.49619L10.1688 8.57928C9.95359 8.86931 9.97744 9.28093 10.2404 9.544C10.5296 9.83339 10.9986 9.83346 11.2879 9.54415L14.0844 6.74769L15.144 7.80725L12.7114 10.2379C12.422 10.527 12.4217 10.9962 12.7108 11.2857C12.9999 11.5752 13.4689 11.5754 13.7583 11.2863L16.1918 8.85486L17.2525 9.9155L14.6709 12.4971L14.5992 12.5802C14.384 12.8702 14.4078 13.2818 14.6707 13.5449C14.96 13.8343 15.429 13.8344 15.7183 13.545L20.8833 8.37997L21.0408 8.21637C21.6486 7.54419 21.9935 6.66324 21.9998 5.74478C22.0065 4.74965 21.6153 3.79327 20.9132 3.08842ZM16.716 7.28383L18.3002 8.86784L18.9716 8.19641L15.8034 5.02859L15.132 5.70002L16.716 7.28383ZM20.0114 7.14091L16.8594 3.9892C17.2577 3.66467 17.7518 3.4855 18.2654 3.48196C18.8648 3.47795 19.4411 3.7136 19.866 4.13656C20.2867 4.55897 20.5225 5.1352 20.5184 5.73472C20.5149 6.25001 20.3344 6.74578 20.0114 7.14091ZM7.42585 11.3108L3.72634 15.0104C3.66562 15.0686 3.61402 15.1381 3.575 15.2174C3.56364 15.2404 3.55346 15.2641 3.54453 15.2883C3.53463 15.315 3.52637 15.342 3.51971 15.3691L2.02498 21.0704L2.00617 21.1665C1.94021 21.6752 2.41333 22.1102 2.92921 21.975L8.64255 20.4776L8.73559 20.4465C8.82617 20.4093 8.90881 20.3545 8.97849 20.2848L12.8665 16.3968L12.9382 16.3137C13.1534 16.0237 13.1296 15.612 12.8667 15.349C12.5774 15.0596 12.1084 15.0595 11.8191 15.3488L8.70824 18.4597L8.07202 16.9748L10.4666 14.5788C10.7559 14.2894 10.7558 13.8203 10.4665 13.531C10.1772 13.2417 9.70819 13.2418 9.41897 13.5311L7.02352 15.928L5.53812 15.2939L8.47323 12.3588L8.54496 12.2757C8.76016 11.9857 8.73631 11.5741 8.47338 11.311C8.18415 11.0216 7.71516 11.0215 7.42585 11.3108ZM3.77934 20.2204L4.73807 16.5635L6.6301 17.3712L7.43978 19.2609L3.77934 20.2204ZM19.7067 21.5765L2.42345 4.28842C2.13419 3.99907 2.13419 3.52995 2.42345 3.2406C2.71272 2.95125 3.18171 2.95125 3.47098 3.2406L20.7542 20.5286C21.0435 20.818 21.0435 21.2871 20.7542 21.5765C20.4649 21.8658 19.996 21.8658 19.7067 21.5765Z" fill="#006DA3"/>
</svg>
