<svg width="24" height="24" viewBox="0 0 24 24" fill="none" xmlns="http://www.w3.org/2000/svg">
<path fill-rule="evenodd" clip-rule="evenodd" d="M3.875 2H20.125C21.1605 2 22 2.83942 22 3.87489V16.3742C22 17.4097 21.1605 18.2491 20.125 18.2491H11.5833L6.75 21.8739C6.36221 22.1647 5.81856 21.9214 5.75595 21.4624L5.75 21.3739V18.2491H3.875C2.88261 18.2491 2.0703 17.4782 2.00433 16.5026L2 16.3742V3.87489C2 2.83942 2.83947 2 3.875 2ZM20.125 3.24993H3.875C3.52982 3.24993 3.25 3.52974 3.25 3.87489V16.3742C3.25 16.7193 3.52982 16.9991 3.875 16.9991H6.375C6.72018 16.9991 7 17.279 7 17.6241V20.124L11 17.1241C11.0865 17.0592 11.1881 17.0182 11.2945 17.0044L11.375 16.9991H20.125C20.4702 16.9991 20.75 16.7193 20.75 16.3742V3.87489C20.75 3.52974 20.4702 3.24993 20.125 3.24993Z" fill="#006DA3"/>
</svg>
