<svg width="16" height="16" viewBox="0 0 16 16" fill="none" xmlns="http://www.w3.org/2000/svg">
<path fill-rule="evenodd" clip-rule="evenodd" d="M10.1875 1.4375C10.1875 1.19588 10.3834 1 10.625 1H14.5625C14.8041 1 15 1.19588 15 1.4375V5.375C15 5.61662 14.8041 5.8125 14.5625 5.8125C14.3209 5.8125 14.125 5.61662 14.125 5.375V2.49372L6.12186 10.4969C5.951 10.6677 5.674 10.6677 5.50314 10.4969C5.33229 10.326 5.33229 10.049 5.50314 9.87814L13.5063 1.875H10.625C10.3834 1.875 10.1875 1.67912 10.1875 1.4375ZM1.38442 4.00942C1.63056 3.76328 1.9644 3.625 2.3125 3.625H7.5625C7.80412 3.625 8 3.82088 8 4.0625C8 4.30412 7.80412 4.5 7.5625 4.5H2.3125C2.19647 4.5 2.08519 4.54609 2.00314 4.62814C1.92109 4.71019 1.875 4.82147 1.875 4.9375V13.6875C1.875 13.8035 1.92109 13.9148 2.00314 13.9969C2.08519 14.0789 2.19647 14.125 2.3125 14.125H11.0625C11.1785 14.125 11.2898 14.0789 11.3719 13.9969C11.4539 13.9148 11.5 13.8035 11.5 13.6875V8.4375C11.5 8.19588 11.6959 8 11.9375 8C12.1791 8 12.375 8.19588 12.375 8.4375V13.6875C12.375 14.0356 12.2367 14.3694 11.9906 14.6156C11.7444 14.8617 11.4106 15 11.0625 15H2.3125C1.9644 15 1.63056 14.8617 1.38442 14.6156C1.13828 14.3694 1 14.0356 1 13.6875V4.9375C1 4.5894 1.13828 4.25556 1.38442 4.00942Z" fill="#006DA3"/>
</svg>
