<svg width="24" height="24" viewBox="0 0 24 24" fill="none" xmlns="http://www.w3.org/2000/svg">
<path d="M19.4709 3.48148L8.38979 14.5626C8.10051 14.8519 8.10051 15.3209 8.38979 15.6102C8.67907 15.8995 9.14808 15.8995 9.43735 15.6102L20.5185 4.52904V8.2963C20.5185 8.7054 20.8502 9.03704 21.2593 9.03704C21.6684 9.03704 22 8.7054 22 8.2963V2.74074C22 2.63591 21.9782 2.53616 21.9389 2.44578C21.907 2.37217 21.8626 2.30268 21.8056 2.24056C21.791 2.2246 21.7757 2.20928 21.7598 2.19465C21.6967 2.13676 21.626 2.09178 21.5511 2.05971C21.4616 2.02128 21.3629 2 21.2593 2H15.7037C15.2946 2 14.963 2.33164 14.963 2.74074C14.963 3.14984 15.2946 3.48148 15.7037 3.48148H19.4709Z" fill="#006DA3"/>
<path d="M3.97531 5.7037H11.3827C11.7918 5.7037 12.1235 6.03534 12.1235 6.44444C12.1235 6.85354 11.7918 7.18519 11.3827 7.18519H3.97531C3.70293 7.18519 3.48148 7.40663 3.48148 7.67901V20.0247C3.48148 20.2971 3.70293 20.5185 3.97531 20.5185H16.321C16.5934 20.5185 16.8148 20.2971 16.8148 20.0247V12.6173C16.8148 12.2082 17.1465 11.8765 17.5556 11.8765C17.9647 11.8765 18.2963 12.2082 18.2963 12.6173V20.0247C18.2963 21.1153 17.4116 22 16.321 22H3.97531C2.88473 22 2 21.1153 2 20.0247V7.67901C2 6.58843 2.88473 5.7037 3.97531 5.7037Z" fill="#006DA3"/>
</svg>
