<svg width="16" height="16" viewBox="0 0 16 16" fill="none" xmlns="http://www.w3.org/2000/svg">
<path fill-rule="evenodd" clip-rule="evenodd" d="M8 15C11.866 15 15 11.866 15 8C15 4.13401 11.866 1 8 1C4.13401 1 1 4.13401 1 8C1.0046 11.8641 4.13591 14.9954 8 15ZM7.99999 2.48936C11.0434 2.48936 13.5106 4.95656 13.5106 8C13.5106 11.0434 11.0434 13.5106 7.99999 13.5106C4.95655 13.5106 2.48936 11.0434 2.48936 8C2.49264 4.95792 4.95791 2.49265 7.99999 2.48936ZM7.10638 8.74468H4.58817C4.17689 8.74468 3.84348 8.41128 3.84348 8C3.84348 7.58872 4.17689 7.25532 4.58817 7.25532H7.10638C7.18863 7.25532 7.25531 7.18864 7.25531 7.10638V4.58757C7.25531 4.1763 7.58872 3.84289 8 3.84289C8.41127 3.84289 8.74468 4.1763 8.74468 4.58757V7.10638C8.74468 7.18864 8.81136 7.25532 8.89361 7.25532H11.4118C11.8231 7.25532 12.1565 7.58872 12.1565 8C12.1565 8.41128 11.8231 8.74468 11.4118 8.74468H8.89361C8.81136 8.74468 8.74468 8.81136 8.74468 8.89362V11.4118C8.74468 11.8231 8.41127 12.1565 8 12.1565C7.58872 12.1565 7.25531 11.8231 7.25531 11.4118V8.89362C7.25531 8.81136 7.18863 8.74468 7.10638 8.74468Z" fill="#006DA3"/>
</svg>
